# File created by Blade
# Date/Time:  Tue Sep 30 19:06:46 2014
#---------------------------------------------------------
:version 1.10
:name HOM
:units
  mass 1.0
  length 1.000000
  angle deg
:documentation
     Acclaim Skeleton File
:root
   axis xyz
   order TX TY TZ RX RY RZ
   position 0.000000 0.000000 0.000000
   orientation 0 0 0
:bonedata
   begin
      id 1
      name Spine_dum
      direction 0.000000 1.000000 0.000000
      length 7.508948
      axis 0.0 0.0 0.0 xyz
   end
   begin
      id 2
      name LeftUpLeg_dum
      direction 1.000000 0.000000 0.000000
      length 3.000560
      axis 0.0 0.0 0.0 xyz
   end
   begin
      id 3
      name RightUpLeg_dum
      direction -1.000000 0.000000 0.000000
      length 3.000560
      axis 0.0 0.0 0.0 xyz
   end
   begin
      id 4
      name Spine
      direction 0.000000 1.000000 0.000000
      length 0.000000
      axis 0.0 0.0 0.0 xyz
      dof rx ry rz
   end
   begin
      id 5
      name Spine_dum1
      direction 0.000000 1.000000 0.000000
      length 13.861154
      axis 0.0 0.0 0.0 xyz
   end
   begin
      id 6
      name Spine_dum2
      direction 0.000000 1.000000 0.000000
      length 8.204781
      axis 0.0 0.0 0.0 xyz
   end
   begin
      id 7
      name Spine_dum3
      direction 0.000000 1.000000 0.000000
      length 8.204781
      axis 0.0 0.0 0.0 xyz
   end
   begin
      id 8
      name Head
      direction 0.000000 1.000000 0.000000
      length 4.527550
      axis 0.0 0.0 0.0 xyz
      dof rx ry rz
   end
   begin
      id 9
      name LeftShoulder
      direction 1.000000 0.000000 0.000000
      length 6.635956
      axis 0.0 0.0 -90.0 xyz
      dof rx ry rz
   end
   begin
      id 10
      name LeftArm
      direction 1.000000 0.000000 0.000000
      length 10.274218
      axis 0.0 0.0 -90.0 xyz
      dof rx ry rz
   end
   begin
      id 11
      name LeftForeArm
      direction 1.000000 0.000000 0.000000
      length 8.522147
      axis 0.0 0.0 -90.0 xyz
      dof ry rz rx
   end
   begin
      id 12
      name LeftHand
      direction 0.000000 0.000000 0.000000
      length 0.000000
      axis 0.0 0.0 -90.0 xyz
      dof rx ry rz
   end
   begin
      id 13
      name LeftHand_dum1
      direction 0.000000 0.000000 0.000000
      length 0.000000
      axis 0.0 0.0 -90.0 xyz
   end
   begin
      id 14
      name LeftHand_dum2
      direction 1.000000 0.000000 0.000000
      length 3.937000
      axis 0.0 0.0 -90.0 xyz
   end
   begin
      id 15
      name LeftHandThumb1
      direction 0.000000 0.000000 1.000000
      length 3.937000
      axis 0.0 0.0 -90.0 xyz
      dof rx rz ry
   end
   begin
      id 16
      name RightShoulder
      direction -1.000000 0.000000 0.000000
      length 6.635956
      axis 0.0 0.0 90.0 xyz
      dof rx ry rz
   end
   begin
      id 17
      name RightArm
      direction -1.000000 0.000000 0.000000
      length 10.274218
      axis 0.0 0.0 90.0 xyz
      dof rx ry rz
   end
   begin
      id 18
      name RightForeArm
      direction -1.000000 0.000000 0.000000
      length 8.522147
      axis 0.0 0.0 90.0 xyz
      dof ry rz rx
   end
   begin
      id 19
      name RightHand
      direction 0.000000 0.000000 0.000000
      length 0.000000
      axis 0.0 0.0 90.0 xyz
      dof rx ry rz
   end
   begin
      id 20
      name RightHand_dum1
      direction 0.000000 0.000000 0.000000
      length 0.000000
      axis 0.0 0.0 90.0 xyz
   end
   begin
      id 21
      name RightHand_dum2
      direction -1.000000 0.000000 0.000000
      length 3.937000
      axis 0.0 0.0 90.0 xyz
   end
   begin
      id 22
      name RightHandThumb1
      direction 0.000000 0.000000 1.000000
      length 3.937000
      axis 0.0 0.0 90.0 xyz
      dof rx rz ry
   end
   begin
      id 23
      name LeftUpLeg
      direction 0.000000 -1.000000 0.000000
      length 16.490845
      axis 0.0 0.0 0.0 xyz
      dof rx ry rz
   end
   begin
      id 24
      name LeftLeg
      direction 0.000000 -1.000000 0.000000
      length 14.556576
      axis 0.0 0.0 0.0 xyz
      dof rx ry rz
   end
   begin
      id 25
      name LeftFoot
      direction 0.000000 -0.258819 0.965926
      length 4.831116
      axis 15.0 0.0 0.0 xyz
      dof rx ry rz
   end
   begin
      id 26
      name LeftToeBase
      direction 0.000000 0.000000 1.000000
      length 2.952750
      axis 0.0 0.0 0.0 xyz
      dof rx ry rz
   end
   begin
      id 27
      name RightUpLeg
      direction 0.000000 -1.000000 0.000000
      length 16.490845
      axis 0.0 0.0 0.0 xyz
      dof rx ry rz
   end
   begin
      id 28
      name RightLeg
      direction 0.000000 -1.000000 0.000000
      length 14.556576
      axis 0.0 0.0 0.0 xyz
      dof rx ry rz
   end
   begin
      id 29
      name RightFoot
      direction 0.000000 -0.258819 0.965926
      length 4.831116
      axis 15.0 0.0 0.0 xyz
      dof rx ry rz
   end
   begin
      id 30
      name RightToeBase
      direction 0.000000 0.000000 1.000000
      length 2.952750
      axis 0.0 0.0 0.0 xyz
      dof rx ry rz
   end
:hierarchy
   begin
      root Spine_dum LeftUpLeg_dum RightUpLeg_dum
      Spine_dum Spine
      LeftUpLeg_dum LeftUpLeg
      RightUpLeg_dum RightUpLeg
      Spine Spine_dum1 Spine_dum2 Spine_dum3
      Spine_dum1 Head
      Spine_dum2 LeftShoulder
      Spine_dum3 RightShoulder
      LeftShoulder LeftArm
      LeftArm LeftForeArm
      LeftForeArm LeftHand
      LeftHand LeftHand_dum1 LeftHand_dum2
      LeftHand_dum1 LeftHandThumb1
      RightShoulder RightArm
      RightArm RightForeArm
      RightForeArm RightHand
      RightHand RightHand_dum1 RightHand_dum2
      RightHand_dum1 RightHandThumb1
      LeftUpLeg LeftLeg
      LeftLeg LeftFoot
      LeftFoot LeftToeBase
      RightUpLeg RightLeg
      RightLeg RightFoot
      RightFoot RightToeBase
   end

# File created by Blade
# Date/Time:  Thu Sep 25 18:58:07 2014
# Frame Rate: 120.000 fps
#------------------------------------------------------
:FULLY-SPECIFIED
:DEGREES
196
root -0.504291 32.742065 1.109137 19.088806 -54.142924 -9.650216
Spine -9.819607 -17.988209 7.321194
Head -13.367438 -16.466254 18.223123
LeftShoulder -7.252224 9.967595 29.822332
LeftArm 20.519444 -20.604153 -27.981485
LeftForeArm 12.171535 0.000000 13.859896
LeftHand -24.361323 -0.000000 -11.905888
LeftHandThumb1 -26.253704 0.000000 33.147579
RightShoulder -25.216156 8.507457 -35.984769
RightArm -18.990324 10.506045 29.762861
RightForeArm -30.416852 -0.000000 14.889452
RightHand -9.227317 -0.000000 15.016103
RightHandThumb1 -24.326973 -0.000000 -32.862282
LeftUpLeg -2.351565 36.215846 4.320370
LeftLeg 8.705515 -0.000000 -0.000000
LeftFoot -24.050760 24.564266 -26.577504
LeftToeBase 9.928775 -0.000000 -0.000000
RightUpLeg -16.870495 15.140245 -2.145881
RightLeg 0.989453 -0.000000 -0.000000
RightFoot 2.228328 24.838052 0.928152
RightToeBase -9.217671 -0.000000 0.000000
197
root -0.526696 32.735166 1.104726 19.406769 -54.789552 -10.010349
Spine -9.811446 -18.358437 7.502441
Head -13.423047 -16.668600 18.224976
LeftShoulder -7.131149 9.992633 29.799260
LeftArm 20.918613 -20.470113 -27.862374
LeftForeArm 11.998796 -0.000000 13.719726
LeftHand -24.334546 0.000000 -11.743457
LeftHandThumb1 -26.253704 0.000000 33.147579
RightShoulder -25.284760 8.439704 -36.132223
RightArm -19.191649 10.432303 29.803105
RightForeArm -30.327233 0.000000 14.903344
RightHand -9.567864 0.000000 14.901082
RightHandThumb1 -24.326973 -0.000000 -32.862282
LeftUpLeg -2.370619 36.459802 4.387903
LeftLeg 9.027498 -0.000000 -0.000000
LeftFoot -24.359575 24.893829 -26.698441
LeftToeBase 10.038335 -0.000000 -0.000000
RightUpLeg -16.953261 15.449696 -2.051539
RightLeg 1.027116 -0.000000 -0.000000
RightFoot 2.316679 25.208469 0.953553
RightToeBase -9.337663 -0.000000 0.000000
198
root -0.544205 32.728854 1.100968 19.710268 -55.403005 -10.347822
Spine -9.790938 -18.806029 7.657435
Head -13.464964 -16.852045 18.290106
LeftShoulder -6.922462 9.712797 29.921853
LeftArm 20.973359 -20.310736 -27.858637
LeftForeArm 12.116750 -0.000000 13.746699
LeftHand -23.895644 -0.000000 -12.090007
LeftHandThumb1 -26.253704 0.000000 33.147579
RightShoulder -25.296438 8.561349 -36.250418
RightArm -19.515447 10.364455 29.708526
RightForeArm -30.334814 -0.000000 14.907820
RightHand -9.688726 -0.000000 14.760744
RightHandThumb1 -24.326973 -0.000000 -32.862282
LeftUpLeg -2.420482 36.669871 4.418400
LeftLeg 9.353189 -0.000000 -0.000000
LeftFoot -24.706495 25.251160 -26.929867
LeftToeBase 10.025865 -0.000000 -0.000000
RightUpLeg -17.046460 15.624864 -1.946299
RightLeg 1.089542 -0.000000 -0.000000
RightFoot 2.419900 25.703417 0.973593
RightToeBase -9.489976 -0.000000 0.000000
199
root -0.574825 32.721173 1.096455 20.034923 -56.009058 -10.741674
Spine -9.785755 -19.208589 7.812135
Head -13.496438 -17.114180 18.385864
LeftShoulder -6.705478 9.658672 30.021100
LeftArm 21.198392 -20.320860 -27.899086
LeftForeArm 12.112063 -0.000000 13.785331
LeftHand -24.078254 -0.000000 -11.993348
LeftHandThumb1 -26.253704 0.000000 33.147579
RightShoulder -25.324158 8.393013 -36.272388
RightArm -19.696283 10.488071 29.657592
RightForeArm -30.331655 -0.000000 14.927882
RightHand -9.614509 -0.000000 14.756832
RightHandThumb1 -24.326973 -0.000000 -32.862282
LeftUpLeg -2.375621 36.902310 4.553986
LeftLeg 9.631519 -0.000000 -0.000000
LeftFoot -24.972339 25.532098 -27.132741
LeftToeBase 9.916463 -0.000000 -0.000000
RightUpLeg -17.081078 15.829382 -1.785665
RightLeg 1.147124 -0.000000 -0.000000
RightFoot 2.471068 26.119788 0.935041
RightToeBase -9.669024 -0.000000 0.000000
200
root -0.597907 32.714384 1.092520 20.342154 -56.639624 -11.124891
Spine -9.728456 -19.610376 7.943794
Head -13.538561 -17.432444 18.430609
LeftShoulder -6.507306 9.436801 30.097777
LeftArm 21.302533 -20.170852 -27.837940
LeftForeArm 12.087020 -0.000000 13.847444
LeftHand -23.973388 -0.000000 -12.088373
LeftHandThumb1 -26.253704 0.000000 33.147579
RightShoulder -25.341481 8.358554 -36.330582
RightArm -19.953388 10.527094 29.590561
RightForeArm -30.354704 -0.000000 14.942314
RightHand -9.612965 0.000000 14.763433
RightHandThumb1 -24.326973 -0.000000 -32.862282
LeftUpLeg -2.346398 37.123515 4.648616
LeftLeg 9.946941 -0.000000 -0.000000
LeftFoot -25.291469 25.868757 -27.278488
LeftToeBase 10.057243 -0.000000 -0.000000
RightUpLeg -17.131623 15.986006 -1.639659
RightLeg 1.234816 -0.000000 -0.000000
RightFoot 2.588558 26.645366 0.988501
RightToeBase -9.832510 -0.000000 0.000000
201
root -0.621042 32.707802 1.090416 20.667708 -57.256075 -11.516554
Spine -9.689014 -20.005042 8.079808
Head -13.587758 -17.717488 18.478532
LeftShoulder -6.278803 9.220693 30.160323
LeftArm 21.393963 -19.954578 -27.707125
LeftForeArm 11.965146 -0.000000 13.854979
LeftHand -23.916690 -0.000000 -12.077064
LeftHandThumb1 -26.253704 0.000000 33.147579
RightShoulder -25.402402 8.290801 -36.392686
RightArm -20.131030 10.563400 29.561814
RightForeArm -30.289713 -0.000000 14.951625
RightHand -9.742365 0.000000 14.735762
RightHandThumb1 -24.326973 -0.000000 -32.862282
LeftUpLeg -2.321816 37.405341 4.726729
LeftLeg 10.250239 -0.000000 -0.000000
LeftFoot -25.582095 26.108636 -27.482855
LeftToeBase 10.085096 -0.000000 -0.000000
RightUpLeg -17.184464 16.165765 -1.508027
RightLeg 1.311253 -0.000000 -0.000000
RightFoot 2.711990 27.143069 1.052458
RightToeBase -10.078641 -0.000000 0.000000
